<svg xmlns="http://www.w3.org/2000/svg" viewBox="0 0 1600 460"><defs><style>.cls-1{font-size:113.48px;font-family:ReadexPro-Light, Readex Pro;font-weight:300;letter-spacing:-0.02em;}.cls-1,.cls-2{fill:#059a75;}</style></defs><g id="Artwork"><text class="cls-1" transform="translate(980.27 165.85)">The</text><path class="cls-2" d="M1022.13,266.07a46,46,0,0,1-17.19-3.06,38.7,38.7,0,0,1-13.22-8.63,37.59,37.59,0,0,1-8.51-13,44.12,44.12,0,0,1-3-16.34,41.54,41.54,0,0,1,3.17-16.34,39.45,39.45,0,0,1,8.91-13.05A40.13,40.13,0,0,1,1006,187a47.48,47.48,0,0,1,17.31-3.06,44.09,44.09,0,0,1,23,6.35,35.87,35.87,0,0,1,5.21,3.85,3.94,3.94,0,0,1,.13,5.63l-6.66,7a4,4,0,0,1-5.34.37,32.41,32.41,0,0,0-6-3.72,24.74,24.74,0,0,0-10.61-2.21,22.76,22.76,0,0,0-9,1.76,21.76,21.76,0,0,0-7.26,5,22.65,22.65,0,0,0-4.82,7.6,25.84,25.84,0,0,0-1.7,9.48,24.07,24.07,0,0,0,1.81,9.42A23.6,23.6,0,0,0,1007,242a23.31,23.31,0,0,0,7.55,5,23.55,23.55,0,0,0,9.3,1.82,19.2,19.2,0,0,0,6.53-1.08,18,18,0,0,0,5.33-3,13.63,13.63,0,0,0,3.64-4.42,12.08,12.08,0,0,0,1.3-5.51v-3l2.5,3.86h-17.69a4,4,0,0,1-4-4v-7.35a4,4,0,0,1,4-4h33.35a29.58,29.58,0,0,1,.34,3.41c.07,1.43.13,2.81.17,4.14s.06,2.36.06,3.12a35.24,35.24,0,0,1-2.78,14.13,32.57,32.57,0,0,1-7.83,11.06,35.76,35.76,0,0,1-11.86,7.21A41.76,41.76,0,0,1,1022.13,266.07Z"/><path class="cls-2" d="M1066.84,247.57V222a17.37,17.37,0,0,1,17.37-17.36h0l.79,19.63-3.4-3.86a26.08,26.08,0,0,1,4.54-8.63,23.13,23.13,0,0,1,7.32-6.12,18.55,18.55,0,0,1,8.9-2.27,23.93,23.93,0,0,1,3.81.28,13.87,13.87,0,0,1,3.12.85l-4.88,20.09a13.93,13.93,0,0,0-3.35-1.19,18.47,18.47,0,0,0-4.37-.51,12.11,12.11,0,0,0-4.6.85,10.42,10.42,0,0,0-3.63,2.44,11.43,11.43,0,0,0-2.38,3.74,13.18,13.18,0,0,0-.85,4.88v30.08h-1A17.37,17.37,0,0,1,1066.84,247.57Z"/><path class="cls-2" d="M1290,345.11V319.58a17.37,17.37,0,0,1,17.37-17.36h0l.79,19.63-3.4-3.86a26.08,26.08,0,0,1,4.54-8.63,23.13,23.13,0,0,1,7.32-6.12,18.55,18.55,0,0,1,8.9-2.27,23.93,23.93,0,0,1,3.81.28,13.87,13.87,0,0,1,3.12.85l-4.88,20.09a13.93,13.93,0,0,0-3.35-1.19,18.47,18.47,0,0,0-4.37-.51,12.11,12.11,0,0,0-4.6.85,10.29,10.29,0,0,0-3.63,2.44,11.33,11.33,0,0,0-2.38,3.74,13.18,13.18,0,0,0-.85,4.88v30.07h-1A17.37,17.37,0,0,1,1290,345.11Z"/><path class="cls-2" d="M1139.14,266.07a34.2,34.2,0,0,1-16.69-4,29.68,29.68,0,0,1-11.57-11.12,30.92,30.92,0,0,1-4.2-16.06,31.36,31.36,0,0,1,4.2-16.28,29.68,29.68,0,0,1,11.57-11.12,36.66,36.66,0,0,1,33.42,0,29.82,29.82,0,0,1,11.52,11.12,31.36,31.36,0,0,1,4.2,16.28,30.92,30.92,0,0,1-4.2,16.06A29.82,29.82,0,0,1,1155.87,262,34.09,34.09,0,0,1,1139.14,266.07Zm0-15.66a12.86,12.86,0,0,0,7.2-2,14.48,14.48,0,0,0,4.94-5.56,16.24,16.24,0,0,0,1.7-7.95,17,17,0,0,0-1.7-8.22,13.89,13.89,0,0,0-4.94-5.57,13.15,13.15,0,0,0-7.2-2,12.93,12.93,0,0,0-7.15,2,14.24,14.24,0,0,0-5,5.56,17.59,17.59,0,0,0-1.81,8.17,17.11,17.11,0,0,0,1.81,7.95,14.31,14.31,0,0,0,5,5.56A12.93,12.93,0,0,0,1139.14,250.41Z"/><path class="cls-2" d="M1189.18,264.94l-19.74-60.26h19.18l11.12,38.92-2.5-.45L1209.72,213h10.67l13.28,30.3-2.73.23,11.13-38.81h19.18l-20.55,60.26h-13.39l-13.16-32.23,1.48.22-12.94,32Z"/><path class="cls-2" d="M1265.44,220.68v-16H1306v16Zm10.67,44.26V189.47h18.27v75.47Z"/><path class="cls-2" d="M1311.18,264.94V181h18v36l-3.74,1.36a18.28,18.28,0,0,1,4.48-7.43,26,26,0,0,1,10.94-6.6,16.21,16.21,0,0,1,4-.75q8.42-.56,13.87,2.7a17.06,17.06,0,0,1,7,8.28,34.91,34.91,0,0,1,2.32,13.56v36.89h-18.27V229.41a15.38,15.38,0,0,0-1-6,7,7,0,0,0-3.06-3.52,9.8,9.8,0,0,0-5.11-1,13,13,0,0,0-4.43.74,10.3,10.3,0,0,0-3.57,2.16,9.62,9.62,0,0,0-2.33,3.23,10.08,10.08,0,0,0-.79,4.09v35.86h-18.27Z"/><path class="cls-2" d="M1021.34,363a44.08,44.08,0,0,1-16.51-3,37.86,37.86,0,0,1-21.57-21.56,44.28,44.28,0,0,1-3-16.51,42.06,42.06,0,0,1,3.12-16.34,39.23,39.23,0,0,1,8.79-13.05,40,40,0,0,1,13.34-8.63,44.34,44.34,0,0,1,16.62-3.06,42.5,42.5,0,0,1,11.12,1.47,38.62,38.62,0,0,1,10.16,4.37,32.76,32.76,0,0,1,8.11,7l-11.91,13.51a26.74,26.74,0,0,0-7.89-6A21.72,21.72,0,0,0,1022,299a23.14,23.14,0,0,0-8.57,1.59,19.53,19.53,0,0,0-7,4.65,22.38,22.38,0,0,0-4.65,7.26,25.1,25.1,0,0,0-1.7,9.53,26.06,26.06,0,0,0,1.64,9.48,19.88,19.88,0,0,0,4.77,7.26,20.93,20.93,0,0,0,7.49,4.6,28.16,28.16,0,0,0,9.7,1.59,23.61,23.61,0,0,0,12.82-3.75,23.81,23.81,0,0,0,4.89-4.08l9.41,15a26.35,26.35,0,0,1-7.43,5.56,45.53,45.53,0,0,1-10.44,3.91A48,48,0,0,1,1021.34,363Z"/><path class="cls-2" d="M1085.46,363a34.2,34.2,0,0,1-16.69-4,29.68,29.68,0,0,1-11.57-11.12,30.92,30.92,0,0,1-4.2-16.06,31.36,31.36,0,0,1,4.2-16.28,29.68,29.68,0,0,1,11.57-11.12,36.68,36.68,0,0,1,33.43,0,29.86,29.86,0,0,1,11.51,11.12,31.36,31.36,0,0,1,4.2,16.28,30.92,30.92,0,0,1-4.2,16.06A29.86,29.86,0,0,1,1102.2,359,34.15,34.15,0,0,1,1085.46,363Zm0-15.66a12.86,12.86,0,0,0,7.2-2,14.41,14.41,0,0,0,4.94-5.56,16.11,16.11,0,0,0,1.7-7.95,16.91,16.91,0,0,0-1.7-8.22,13.89,13.89,0,0,0-4.94-5.57,13.15,13.15,0,0,0-7.2-2,12.93,12.93,0,0,0-7.15,2,14.24,14.24,0,0,0-5,5.56,17.59,17.59,0,0,0-1.81,8.17,17.08,17.08,0,0,0,1.81,7.95,14.24,14.24,0,0,0,5,5.56A12.93,12.93,0,0,0,1085.46,347.38Z"/><path class="cls-2" d="M1125,361.91V301.65h17.36l.68,12.25-3.74,1.37a18.25,18.25,0,0,1,4.48-7.44,26,26,0,0,1,11-6.6,16.52,16.52,0,0,1,4-.75q8.41-.56,13.87,2.7a17,17,0,0,1,7,8.28A34.91,34.91,0,0,1,1181.8,325v36.89h-18.27V326.39a15.4,15.4,0,0,0-1-6,7,7,0,0,0-3.06-3.52,9.78,9.78,0,0,0-5.11-1,13,13,0,0,0-4.43.74,10.3,10.3,0,0,0-3.57,2.16A9.62,9.62,0,0,0,1144,322a10.08,10.08,0,0,0-.79,4.09v35.86H1125Z"/><path class="cls-2" d="M1187.25,318.56V303.35h39.49v15.21Zm8.85,43.35V298.7a21.86,21.86,0,0,1,2.56-10.62,19.74,19.74,0,0,1,7.2-7.54,20.31,20.31,0,0,1,10.78-2.84,23,23,0,0,1,7.83,1.31,22.44,22.44,0,0,1,6.47,3.57l-5.22,13.28a17.92,17.92,0,0,0-2.83-1.25,8.08,8.08,0,0,0-2.5-.45,7.53,7.53,0,0,0-3.41.68,4.13,4.13,0,0,0-2,2,8.1,8.1,0,0,0-.63,3.4v61.63H1196.1Z"/><path class="cls-2" d="M1258.63,363a36.41,36.41,0,0,1-17.42-4,28.41,28.41,0,0,1-11.46-10.95,31.28,31.28,0,0,1-4-15.95,35.38,35.38,0,0,1,2.27-12.88,28.79,28.79,0,0,1,16.17-16.56,31.74,31.74,0,0,1,12.32-2.33,28.78,28.78,0,0,1,11.57,2.27,27.33,27.33,0,0,1,9.08,6.35,27.91,27.91,0,0,1,5.9,9.65,33.24,33.24,0,0,1,1.93,12.14l-.11,5H1237l-2.73-10.33H1270l-1.93,2v-2.27a9.46,9.46,0,0,0-1.76-4.93,11,11,0,0,0-4-3.35,11.94,11.94,0,0,0-5.5-1.25,15.31,15.31,0,0,0-7.66,1.76,11.19,11.19,0,0,0-4.71,5,18.71,18.71,0,0,0-1.59,8.17,17.31,17.31,0,0,0,2.1,8.62,14.14,14.14,0,0,0,6.13,5.79,21,21,0,0,0,9.59,2,19.37,19.37,0,0,0,6.8-1.13,25.47,25.47,0,0,0,6.59-3.86l8.51,12a38.49,38.49,0,0,1-7.49,4.94,36.5,36.5,0,0,1-16.46,3.91Z"/><path class="cls-2" d="M1364.74,363a36.39,36.39,0,0,1-17.42-4,28.28,28.28,0,0,1-11.46-10.95,31.28,31.28,0,0,1-4-15.95,35.38,35.38,0,0,1,2.27-12.88,28.79,28.79,0,0,1,16.17-16.56,31.72,31.72,0,0,1,12.31-2.33,28.79,28.79,0,0,1,11.58,2.27,27.33,27.33,0,0,1,9.08,6.35,27.91,27.91,0,0,1,5.9,9.65,33.45,33.45,0,0,1,1.93,12.14l-.12,5h-47.89l-2.72-10.33h35.75l-1.93,2v-2.27a9.46,9.46,0,0,0-1.76-4.93,11.09,11.09,0,0,0-4-3.35,12,12,0,0,0-5.51-1.25,15.33,15.33,0,0,0-7.66,1.76,11.25,11.25,0,0,0-4.71,5,18.71,18.71,0,0,0-1.58,8.17,17.2,17.2,0,0,0,2.1,8.62,14.12,14.12,0,0,0,6.12,5.79,21,21,0,0,0,9.59,2,19.38,19.38,0,0,0,6.81-1.13,25.43,25.43,0,0,0,6.58-3.86l8.52,12a38.56,38.56,0,0,1-7.5,4.94,36.42,36.42,0,0,1-16.45,3.91Z"/><path class="cls-2" d="M1397.76,361.91V301.65h17.37l.68,12.25-3.75,1.37a18.36,18.36,0,0,1,4.48-7.44,26,26,0,0,1,11-6.6,16.71,16.71,0,0,1,4-.75q8.41-.56,13.87,2.7a17,17,0,0,1,7,8.28,34.89,34.89,0,0,1,2.33,13.56v36.89h-18.27V326.39a15.4,15.4,0,0,0-1-6,7.07,7.07,0,0,0-3.07-3.52,9.74,9.74,0,0,0-5.1-1,13,13,0,0,0-4.43.74,10.3,10.3,0,0,0-3.57,2.16,9.49,9.49,0,0,0-2.33,3.23,10.08,10.08,0,0,0-.8,4.09v35.86h-18.27Z"/><path class="cls-2" d="M1491.5,363a30.55,30.55,0,0,1-15.72-4.08,29.39,29.39,0,0,1-11-11.18,32.07,32.07,0,0,1-4-15.95,32.51,32.51,0,0,1,4-16.17,29.46,29.46,0,0,1,11-11.18,30.55,30.55,0,0,1,15.72-4.08,37.19,37.19,0,0,1,14.81,2.89,26,26,0,0,1,10.61,7.89l-9.87,12a18.24,18.24,0,0,0-8.4-6,16.61,16.61,0,0,0-5.45-.9,14.45,14.45,0,0,0-7.6,2,13.53,13.53,0,0,0-5.11,5.51,17,17,0,0,0-1.81,7.94,16,16,0,0,0,1.87,7.77,14.47,14.47,0,0,0,5.16,5.51,13.73,13.73,0,0,0,7.38,2,18,18,0,0,0,5.45-.79,17,17,0,0,0,4.59-2.27,22.66,22.66,0,0,0,3.92-3.52l9.87,12a26.83,26.83,0,0,1-10.78,7.66A37.59,37.59,0,0,1,1491.5,363Z"/><path class="cls-2" d="M1550.74,363a36.39,36.39,0,0,1-17.42-4,28.28,28.28,0,0,1-11.46-10.95,31.28,31.28,0,0,1-4-15.95,35.17,35.17,0,0,1,2.27-12.88,28.79,28.79,0,0,1,16.17-16.56,31.69,31.69,0,0,1,12.31-2.33,28.79,28.79,0,0,1,11.58,2.27,27.43,27.43,0,0,1,9.08,6.35,27.91,27.91,0,0,1,5.9,9.65,33.45,33.45,0,0,1,1.93,12.14l-.12,5h-47.89l-2.72-10.33h35.75l-1.93,2v-2.27a9.46,9.46,0,0,0-1.76-4.93,11.09,11.09,0,0,0-4-3.35,12,12,0,0,0-5.51-1.25,15.33,15.33,0,0,0-7.66,1.76,11.25,11.25,0,0,0-4.71,5,18.71,18.71,0,0,0-1.59,8.17,17.31,17.31,0,0,0,2.1,8.62,14.2,14.2,0,0,0,6.13,5.79,21,21,0,0,0,9.59,2,19.38,19.38,0,0,0,6.81-1.13,25.43,25.43,0,0,0,6.58-3.86l8.51,12a38.2,38.2,0,0,1-7.49,4.94,36.42,36.42,0,0,1-16.45,3.91Z"/><path class="cls-2" d="M22.93,64.12l402.3-.64v70.45H210.1V396.52h0a73.19,73.19,0,0,1-73.2-73.19V134.57H93.38A70.45,70.45,0,0,1,22.93,64.12Z"/><path class="cls-2" d="M428.61,211.7H589.18v27.45q0,71.37-44.83,114.83-44.39,42.54-113,42.54-74.57,0-124-48-49-48-48.95-118T306.92,112q48.48-48.49,119.4-48.5,44.37,0,81.66,19.9t58.33,53.3l-11.74,6.73a86.53,86.53,0,0,1-81.86,1.94l-.41-.21q-20.82-10.29-46.44-10.29-40.71,0-67.7,27-26.54,26.53-26.54,69.08,0,41.18,27.45,68.16,27.45,26.07,73.2,26.08,63.14,0,81.89-49.41H492.65a64,64,0,0,1-64-64.05Z"/><path class="cls-2" d="M768.68,314.64q-19.89,10.53-44.14,10.52-43,0-68.16-26.08Q631.21,273.46,631.21,230t25.17-69.08q25.15-26.07,68.16-26.07,24.71,0,44.14,10.29l.39.2c25.37,13.64,55.88,13.6,80.8-.84l11.9-6.9h0q-21-34.32-57.63-54.2t-79.6-19.91q-72.28,0-119.4,48Q558,158.64,558,230t47.13,119q47.58,47.58,119.4,47.57,43.46,0,80.06-19.89,32.53-17.72,52.42-46.82c-7.88-6.57-29.91-22.8-65.86-33A74,74,0,0,1,768.68,314.64Z"/><path class="cls-2" d="M811.92,264.38a14.12,14.12,0,1,0-15.36-12.75A14.11,14.11,0,0,0,811.92,264.38Z"/><path class="cls-2" d="M874.31,317.81c-13.26-32.13-6.8-64.85-.61-94.2,1.77-8.4,3.57-15.2,4.83-19.64Q854,235.86,829.44,267.69q-32,8.08-63.92,16.13,8.07,1,16.53,2.7,6.38,1.29,12.46,2.91c.68.17,1.37.35,2,.54q3.5,1,6.88,2l.94.29c.23.06.44.11.64.18s.57.19.85.28A238.63,238.63,0,0,1,861.44,319c.37.21.74.46,1.11.7s.5.3.77.48c.87.54,1.72,1.11,2.56,1.66l1.4.93,1,.67c5.16,3.49,10,7,14.51,10.55A99.67,99.67,0,0,1,874.31,317.81Z"/></g></svg>