<svg xmlns="http://www.w3.org/2000/svg" viewBox="0 0 909 377"><defs><style>.cls-1{fill:#059a75;}</style></defs><g id="Artwork"><path class="cls-1" d="M24.57,22.62,426.87,22V92.43H211.74V355h0a73.19,73.19,0,0,1-73.2-73.19V93.07H95A70.45,70.45,0,0,1,24.57,22.62Z"/><path class="cls-1" d="M430.25,170.2H590.82v27.45q0,71.37-44.83,114.83Q501.62,355,433,355q-74.57,0-124-48-49-48-48.95-118T308.56,70.48Q357.05,22,428,22q44.37,0,81.66,19.9T568,95.18l-11.74,6.73a86.53,86.53,0,0,1-81.86,1.94l-.41-.21Q453.12,93.35,427.5,93.35q-40.71,0-67.7,27-26.54,26.53-26.53,69.08,0,41.18,27.44,68.16,27.45,26.07,73.2,26.08,63.13,0,81.89-49.41H494.3a64,64,0,0,1-64.05-64.05Z"/><path class="cls-1" d="M770.32,273.14q-19.89,10.53-44.14,10.52-43,0-68.16-26.08Q632.85,232,632.85,188.5T658,119.42q25.15-26.07,68.16-26.07,24.71,0,44.14,10.29l.39.2c25.38,13.64,55.88,13.6,80.8-.84l11.9-6.9h0q-21-34.32-57.63-54.2T726.18,22q-72.28,0-119.4,48-47.13,47.13-47.12,118.49t47.12,119Q654.36,355,726.18,355q43.46,0,80.06-19.89,32.53-17.72,52.42-46.82c-7.88-6.57-29.91-22.8-65.86-33A74,74,0,0,1,770.32,273.14Z"/><path class="cls-1" d="M813.56,222.88a14.12,14.12,0,1,0-15.36-12.75A14.11,14.11,0,0,0,813.56,222.88Z"/><path class="cls-1" d="M876,276.31c-13.26-32.13-6.8-64.85-.62-94.2,1.77-8.4,3.57-15.2,4.83-19.64q-24.55,31.89-49.08,63.72-32,8.09-63.93,16.13,8.07,1,16.54,2.7,6.36,1.29,12.45,2.91c.68.17,1.37.35,2,.54q3.48,1,6.87,2l.94.29c.23.06.45.11.65.18s.56.19.84.28a238.43,238.43,0,0,1,55.59,26.23c.37.21.74.46,1.11.7a8.09,8.09,0,0,1,.77.48c.87.54,1.72,1.11,2.57,1.66l1.4.93,1,.67c5.15,3.49,10,7,14.5,10.55A98.68,98.68,0,0,1,876,276.31Z"/></g></svg>